PathFileType	4	(X/Y/Z)	/Users/itak/Documents/Research/Walk-IL/dataset/trc/00450_00167.trc
DataRate	CameraRate	NumFrames	NumMarkers	Units	OrigDataRate	OrigDataStartFrame	OrigNumFrames
100.000000	100.000000	4	53	mm	100.000000	0	436
Frame#	Time	RPSI			LPSI			L3			STRN			T10			C7			CLAV			RBAK			LBAK			LSHO			LUPA			LAEL			LAOL			LWTS			LWPS			LFRA			LIFD			LHPS			LHTS			RSHO			RUPA			RAEL			RAOL			RWTS			RWPS			RFRA			RIFD			RHTS			RHPS			RBHD			LFHD			RFHD			LBHD			LHIP			RHIP			RASI			LASI			LKNE			LTHI			LANK			LTIP			LTOE			LMT1			LMT5			LHEE			RKNE			RTHI			RANK			RTIP			RTOE			RMT1			RMT5			RHEE			
		X1	Y1	Z1	X2	Y2	Z2	X3	Y3	Z3	X4	Y4	Z4	X5	Y5	Z5	X6	Y6	Z6	X7	Y7	Z7	X8	Y8	Z8	X9	Y9	Z9	X10	Y10	Z10	X11	Y11	Z11	X12	Y12	Z12	X13	Y13	Z13	X14	Y14	Z14	X15	Y15	Z15	X16	Y16	Z16	X17	Y17	Z17	X18	Y18	Z18	X19	Y19	Z19	X20	Y20	Z20	X21	Y21	Z21	X22	Y22	Z22	X23	Y23	Z23	X24	Y24	Z24	X25	Y25	Z25	X26	Y26	Z26	X27	Y27	Z27	X28	Y28	Z28	X29	Y29	Z29	X30	Y30	Z30	X31	Y31	Z31	X32	Y32	Z32	X33	Y33	Z33	X34	Y34	Z34	X35	Y35	Z35	X36	Y36	Z36	X37	Y37	Z37	X38	Y38	Z38	X39	Y39	Z39	X40	Y40	Z40	X41	Y41	Z41	X42	Y42	Z42	X43	Y43	Z43	X44	Y44	Z44	X45	Y45	Z45	X46	Y46	Z46	X47	Y47	Z47	X48	Y48	Z48	X49	Y49	Z49	X50	Y50	Z50	X51	Y51	Z51	X52	Y52	Z52	X53	Y53	Z53	

1	0	-1780.243041992188	964.7931518554688	-542.897705078125	-1716.417602539062	965.931884765625	-668.8507690429688	-1744.838256835938	1056.756103515625	-585.0781860351562	-1496.065063476562	1260.296630859375	-487.7107849121094	-1762.025634765625	1181.23095703125	-594.3949584960938	-1710.5390625	1451.657592773438	-558.7554931640625	-1531.781372070312	1372.884399414062	-507.2416381835938	-1802.361450195312	1331.478515625	-493.4374694824219	-1705.616333007812	1401.000854492188	-661.162353515625	-1582.326538085938	1425.454711914062	-704.2311401367188	-1556.609497070312	1306.138305664062	-798.410400390625	-1522.0419921875	1091.77587890625	-824.8473510742188	-1619.19287109375	1076.831909179688	-789.9043579101562	-1447.693237304688	899.9742431640625	-742.692138671875	-1485.483764648438	875.5817260742188	-829.54736328125	-1498.426513671875	1004.25244140625	-828.3775024414062	-1463.259643554688	719.5595703125	-766.7665405273438	-1481.436401367188	794.3698120117188	-830.5594482421875	-1450.541259765625	797.591064453125	-768.5467529296875	-1703.567016601562	1421.932983398438	-381.7494812011719	-1746.595825195312	1358.623779296875	-318.2912292480469	-1754.608276367188	1068.804809570312	-270.983154296875	-1791.381713867188	1052.508544921875	-325.6968078613281	-1638.095581054688	872.124755859375	-283.7423400878906	-1718.891235351562	855.1759033203125	-252.3575439453125	-1752.5791015625	1011.054748535156	-262.1586608886719	-1633.614379882812	714.2274780273438	-267.0470581054688	-1624.807250976562	774.1630249023438	-261.8245849609375	-1698.38916015625	772.1470336914062	-241.6282348632812	-1663.180541992188	1651.656127929688	-456.8877563476562	-1474.600463867188	1665.541015625	-544.823974609375	-1529.392211914062	1667.767578125	-425.2707824707031	-1605.686767578125	1652.294799804688	-625.3225708007812	-1542.005004882812	864.80908203125	-713.173583984375	-1739.783935546875	864.10107421875	-367.0144958496094	-1617.116577148438	904.573974609375	-375.1116943359375	-1488.280639648438	904.2722778320312	-599.2577514648438	-1531.538940429688	441.3331909179688	-674.374267578125	-1502.646362304688	595.02978515625	-683.7615966796875	-1646.285766601562	34.349609375	-733.760498046875	-1554.96142578125	289.498779296875	-701.5064086914062	-1469.877685546875	46.31858444213867	-576.3450317382812	-1545.105834960938	53.43222427368164	-579.9332275390625	-1502.351928710938	44.59256744384766	-687.0597534179688	-1717.119873046875	34.18932723999023	-708.2089233398438	-1704.4140625	471.3068542480469	-375.8593444824219	-1706.173583984375	730.7352905273438	-335.756103515625	-1771.01806640625	41.4213981628418	-398.0454406738281	-1719.864990234375	326.9320983886719	-364.5152282714844	-1558.284912109375	50.26547241210938	-343.0687866210938	-1596.117065429688	55.76010513305664	-402.5798645019531	-1662.934448242188	47.2055549621582	-315.7091674804688	-1808.488647460938	32.82173919677734	-470.0843505859375	
2	0.01	-1780.072021484375	964.7301635742188	-542.91796875	-1716.187866210938	965.9589233398438	-668.877685546875	-1744.674682617188	1056.724853515625	-585.166259765625	-1495.980346679688	1260.296875	-487.6793212890625	-1761.851928710938	1181.181762695312	-594.533935546875	-1710.369018554688	1451.656127929688	-558.9472045898438	-1531.661376953125	1372.878662109375	-507.2896118164062	-1802.204711914062	1331.489013671875	-493.6346435546875	-1705.421264648438	1400.974365234375	-661.2587890625	-1582.107788085938	1425.371459960938	-704.2935180664062	-1556.273559570312	1306.026000976562	-798.43994140625	-1521.974365234375	1091.699829101562	-824.8737182617188	-1619.135986328125	1076.800170898438	-789.9071044921875	-1451.675415039062	896.6254272460938	-747.5426635742188	-1485.635009765625	875.4352416992188	-829.6934814453125	-1498.364501953125	1004.191589355469	-828.4134521484375	-1463.493530273438	719.4375	-767.0198364257812	-1481.55712890625	794.2728271484375	-830.6964111328125	-1450.480102539062	797.4017944335938	-768.699951171875	-1703.54296875	1421.96337890625	-381.9400329589844	-1746.618896484375	1358.669311523438	-318.4525451660156	-1754.6220703125	1068.846069335938	-271.0605163574219	-1791.34619140625	1052.470336914062	-325.802001953125	-1637.69921875	872.5421142578125	-283.6224365234375	-1718.488037109375	855.3248291015625	-252.3369750976562	-1752.496215820312	1011.077819824219	-262.2184448242188	-1632.931396484375	714.4923095703125	-267.0799865722656	-1624.15087890625	774.4957275390625	-261.7894592285156	-1697.680541992188	772.31005859375	-241.443115234375	-1662.999633789062	1651.715942382812	-457.1017150878906	-1474.370849609375	1665.37548828125	-544.9501953125	-1529.181030273438	1667.794189453125	-425.4025573730469	-1605.388305664062	1652.281616210938	-625.4821166992188	-1541.81103515625	864.8265380859375	-713.1331176757812	-1739.790893554688	864.1200561523438	-367.0675659179688	-1617.069458007812	904.5863037109375	-375.087158203125	-1488.072875976562	904.2569580078125	-599.195068359375	-1531.536376953125	441.3406677246094	-674.3660278320312	-1502.581665039062	595.0026245117188	-683.7113037109375	-1646.287963867188	34.35228729248047	-733.7638549804688	-1554.960327148438	289.4970703125	-701.509765625	-1469.875	46.30648422241211	-576.33251953125	-1545.092651367188	53.4515495300293	-579.9481811523438	-1502.32861328125	44.57681274414062	-687.0629272460938	-1717.13232421875	34.20602798461914	-708.1900634765625	-1704.401000976562	471.3055725097656	-375.8722534179688	-1706.146606445312	730.730712890625	-335.8089294433594	-1771.002197265625	41.42147064208984	-398.0502624511719	-1719.829467773438	326.9298095703125	-364.5313110351562	-1558.279663085938	50.25822448730469	-343.0606994628906	-1596.108276367188	55.75959777832031	-402.5841369628906	-1662.927978515625	47.20576095581055	-315.7054443359375	-1808.466674804688	32.8427848815918	-470.0732727050781	
3	0.02	-1779.895629882812	964.6857299804688	-542.9540405273438	-1715.92626953125	966.003173828125	-668.9053344726562	-1744.462890625	1056.677612304688	-585.2753295898438	-1495.869873046875	1260.29638671875	-487.648681640625	-1761.633544921875	1181.135375976562	-594.7041625976562	-1710.15380859375	1451.661987304688	-559.1737060546875	-1531.509155273438	1372.869262695312	-507.3542175292969	-1802.011108398438	1331.497680664062	-493.8731384277344	-1705.159912109375	1400.933227539062	-661.3870849609375	-1581.831176757812	1425.277709960938	-704.3760986328125	-1555.892211914062	1305.9111328125	-798.4862060546875	-1521.876342773438	1091.604125976562	-824.9100952148438	-1619.006958007812	1076.715942382812	-789.9019165039062	-1455.382568359375	893.4810791015625	-752.0662231445312	-1485.785278320312	875.2646484375	-829.8536376953125	-1498.28857421875	1004.119323730469	-828.4602661132812	-1463.704467773438	719.3148193359375	-767.2713012695312	-1481.67333984375	794.1525268554688	-830.8380737304688	-1450.38623046875	797.1925048828125	-768.8585205078125	-1703.51708984375	1422.001831054688	-382.1685791015625	-1746.632080078125	1358.731079101562	-318.6610717773438	-1754.644409179688	1068.911743164062	-271.1311340332031	-1791.312866210938	1052.434692382812	-325.8965148925781	-1637.227905273438	873.0393676757812	-283.4708862304688	-1717.952026367188	855.50146484375	-252.2653503417969	-1752.380981445312	1011.124084472656	-262.2656555175781	-1632.04248046875	714.8448486328125	-267.0806579589844	-1623.339477539062	774.9229736328125	-261.7293701171875	-1696.807983398438	772.525146484375	-241.2124938964844	-1662.7919921875	1651.791015625	-457.3805847167969	-1474.121826171875	1665.2001953125	-545.084716796875	-1528.93359375	1667.8369140625	-425.5694885253906	-1605.035522460938	1652.260498046875	-625.6869506835938	-1541.571533203125	864.8445434570312	-713.07763671875	-1739.79345703125	864.1467895507812	-367.1295776367188	-1617.005249023438	904.6005859375	-375.057373046875	-1487.81982421875	904.2401733398438	-599.1126098632812	-1531.534057617188	441.3512573242188	-674.35595703125	-1502.508056640625	594.9737548828125	-683.6555786132812	-1646.289794921875	34.35509490966797	-733.7669067382812	-1554.959594726562	289.4967651367188	-701.5133056640625	-1469.870361328125	46.29194641113281	-576.3177490234375	-1545.076538085938	53.47056198120117	-579.9603271484375	-1502.30419921875	44.56027984619141	-687.0662231445312	-1717.14599609375	34.22539520263672	-708.17041015625	-1704.387817382812	471.3069458007812	-375.8896179199219	-1706.110717773438	730.7260131835938	-335.8703918457031	-1770.98095703125	41.42224884033203	-398.0556335449219	-1719.786743164062	326.9315185546875	-364.5527648925781	-1558.2734375	50.25003051757812	-343.0527648925781	-1596.097045898438	55.75751495361328	-402.5900573730469	-1662.92041015625	47.20665740966797	-315.7012329101562	-1808.443237304688	32.86907958984375	-470.0616455078125	
4	0.03	-1779.731079101562	964.67333984375	-543.00927734375	-1715.656860351562	966.06396484375	-668.9297485351562	-1744.213134765625	1056.615112304688	-585.3984375	-1495.735473632812	1260.295043945312	-487.6249389648438	-1761.3798828125	1181.100952148438	-594.8966064453125	-1709.903442382812	1451.6767578125	-559.422607421875	-1531.330444335938	1372.85546875	-507.4332275390625	-1801.788452148438	1331.500732421875	-494.1411743164062	-1704.835327148438	1400.876953125	-661.54638671875	-1581.505126953125	1425.182006835938	-704.4791870117188	-1555.499267578125	1305.81103515625	-798.5567016601562	-1521.745483398438	1091.492065429688	-824.9552612304688	-1618.781372070312	1076.560668945312	-789.8836059570312	-1458.375244140625	890.9019775390625	-755.7379150390625	-1485.905395507812	875.0857543945312	-830.0053100585938	-1498.201782226562	1004.040466308594	-828.515869140625	-1463.84765625	719.2029418945312	-767.4780883789062	-1481.753540039062	794.0134887695312	-830.956787109375	-1450.2490234375	796.9844970703125	-768.994140625	-1703.490600585938	1422.047729492188	-382.4208374023438	-1746.629516601562	1358.809814453125	-318.9111633300781	-1754.67529296875	1069.005493164062	-271.1814270019531	-1791.288208007812	1052.409301757812	-325.9607238769531	-1636.707397460938	873.5884399414062	-283.2917175292969	-1717.300659179688	855.6962280273438	-252.1291351318359	-1752.23486328125	1011.198486328125	-262.2866516113281	-1630.986694335938	715.2771606445312	-267.0303039550781	-1622.416137695312	775.43017578125	-261.6354370117188	-1695.814575195312	772.7861938476562	-240.9484405517578	-1662.577270507812	1651.87646484375	-457.7156677246094	-1473.878051757812	1665.036376953125	-545.2138061523438	-1528.673095703125	1667.898315429688	-425.7639770507812	-1604.648681640625	1652.229858398438	-625.9291381835938	-1541.299072265625	864.8617553710938	-713.0076293945312	-1739.787841796875	864.1812744140625	-367.1950073242188	-1616.923706054688	904.6160278320312	-375.0230712890625	-1487.536010742188	904.223388671875	-599.01220703125	-1531.532592773438	441.3663024902344	-674.3452758789062	-1502.432495117188	594.9473876953125	-683.6014404296875	-1646.291259765625	34.35773849487305	-733.7691650390625	-1554.960083007812	289.4989318847656	-701.5169677734375	-1469.864013671875	46.27632522583008	-576.3021850585938	-1545.05712890625	53.48762512207031	-579.9656372070312	-1502.281494140625	44.54465103149414	-687.0695190429688	-1717.158935546875	34.24441146850586	-708.1519775390625	-1704.37548828125	471.3120422363281	-375.9110717773438	-1706.066772460938	730.72119140625	-335.9363403320312	-1770.954711914062	41.4239387512207	-398.0610961914062	-1719.7412109375	326.9373168945312	-364.5770874023438	-1558.26708984375	50.24187850952148	-343.0454406738281	-1596.084350585938	55.75387573242188	-402.597412109375	-1662.911865234375	47.20838165283203	-315.6961975097656	-1808.420532226562	32.89843368530273	-470.0514221191406	
